<svg xmlns="http://www.w3.org/2000/svg" width="20.002" height="24.516" viewBox="0 0 20.002 24.516">
  <g id="app-store-badge" transform="translate(-10.166 -6.549)">
    <path id="Path_13326" data-name="Path 13326" d="M71.072,38.745a5.754,5.754,0,0,1,2.679-4.664A6.183,6.183,0,0,0,69.285,31.6c-1.885-.2-3.771,1.092-4.664,1.092-.992,0-2.481-1.092-4.069-1.092a5.9,5.9,0,0,0-5.061,3.076c-2.183,3.771-.6,9.328,1.489,12.4,1.092,1.489,2.282,3.175,3.87,3.076s2.183-.992,4.069-.992,2.382.992,4.069.992,2.779-1.489,3.771-2.977a11.375,11.375,0,0,0,1.687-3.473A5.487,5.487,0,0,1,71.072,38.745Z" transform="translate(-44.278 -19.096)" fill="#fff"/>
    <path id="Path_13327" data-name="Path 13327" d="M68.072,29.569a6.154,6.154,0,0,0,1.29-3.969,5.314,5.314,0,0,0-3.572,1.885,5.018,5.018,0,0,0-1.29,3.771A4.714,4.714,0,0,0,68.072,29.569Z" transform="translate(-44.355 -19.051)" fill="#fff"/>
  </g>
</svg>
