<?xml version="1.0" encoding="iso-8859-1"?>
<!-- Generator: Adobe Illustrator 18.0.0, SVG Export Plug-In . SVG Version: 6.00 Build 0)  -->
<!DOCTYPE svg PUBLIC "-//W3C//DTD SVG 1.1//EN" "http://www.w3.org/Graphics/SVG/1.1/DTD/svg11.dtd">
<svg version="1.1" id="Capa_1" xmlns="http://www.w3.org/2000/svg" xmlns:xlink="http://www.w3.org/1999/xlink" x="0px" y="0px"
	 viewBox="0 0 480 480" style="enable-background:new 0 0 480 480;" xml:space="preserve">
<path d="M430.025,268.567c30.862-40.276,24.981-83.163,24.708-85.021l-1.259-8.542H353.093
	c0.562-27.839-1.904-102.464-41.23-144.847C293.294,10.146,269.116,0,240,0c-29.116,0-53.294,10.146-71.863,30.158
	c-39.326,42.383-41.792,117.008-41.23,144.847H26.526l-1.259,8.542c-0.274,1.857-6.155,44.743,24.707,85.021
	C36.718,286.609,7.348,341.124,7.348,470v10h465.304v-10C472.652,341.123,443.282,286.609,430.025,268.567z M182.827,43.73
	C197.66,27.763,216.361,20,240,20c23.639,0,42.34,7.763,57.173,23.73c34.243,36.866,36.317,106.284,35.872,131.274h-186.09
	C146.509,150.013,148.585,80.595,182.827,43.73z M435.306,195.005c-0.162,13.35-3.372,40.111-23.749,64.653
	c-26.658,32.107-73.249,50.66-138.549,55.236v-12.64c0-9.792-7.967-17.759-17.759-17.759h-30.497
	c-9.792,0-17.759,7.967-17.759,17.759v12.64c-65.3-4.575-111.891-23.129-138.549-55.235c-20.385-24.551-23.59-51.323-23.751-64.654
	H435.306z M253.008,304.496v57.59h-26.016v-57.59H253.008z M27.413,460c0.556-43.065,4.927-100.03,21.231-144.925
	c5.514-15.183,11.052-25.194,15.071-31.284c31.263,29.689,79.336,46.861,143.277,51.149v29.388c0,9.792,7.967,17.759,17.759,17.759
	h30.497c9.793,0,17.759-7.967,17.759-17.759V334.94c63.943-4.288,112.016-21.462,143.279-51.151
	c3.8,5.764,8.979,15.061,14.199,28.934c16.998,45.169,21.535,103.28,22.102,147.277H27.413z"/>
<g>
</g>
<g>
</g>
<g>
</g>
<g>
</g>
<g>
</g>
<g>
</g>
<g>
</g>
<g>
</g>
<g>
</g>
<g>
</g>
<g>
</g>
<g>
</g>
<g>
</g>
<g>
</g>
<g>
</g>
</svg>
