<?xml version="1.0" encoding="iso-8859-1"?>
<!-- Generator: Adobe Illustrator 19.0.0, SVG Export Plug-In . SVG Version: 6.00 Build 0)  -->
<svg version="1.1" id="Layer_1" xmlns="http://www.w3.org/2000/svg" xmlns:xlink="http://www.w3.org/1999/xlink" x="0px" y="0px"
	 viewBox="0 0 512 512" style="enable-background:new 0 0 512 512;" xml:space="preserve">
<g>
	<g>
		<polygon points="135.791,299.619 135.791,271.793 102.4,271.793 102.4,299.619 74.574,299.619 74.574,333.01 102.4,333.01 
			102.4,360.836 135.791,360.836 135.791,333.01 163.617,333.01 163.617,299.619 		"/>
	</g>
</g>
<g>
	<g>
		<path d="M423.076,288.369c-15.353-15.349-40.33-15.351-55.682,0c-7.437,7.436-11.532,17.323-11.532,27.842
			c0,10.518,4.096,20.405,11.532,27.842c7.676,7.676,17.759,11.513,27.841,11.513c10.083,0,20.165-3.838,27.842-11.513
			c7.437-7.436,11.532-17.323,11.532-27.842C434.608,305.693,430.512,295.806,423.076,288.369z M399.465,320.441
			c-2.332,2.332-6.126,2.334-8.46,0c-1.525-1.525-1.752-3.305-1.752-4.23c0-0.925,0.227-2.705,1.752-4.23
			c1.166-1.166,2.698-1.75,4.23-1.75c1.533,0,3.064,0.583,4.231,1.75c1.525,1.525,1.752,3.305,1.752,4.23
			C401.217,317.136,400.99,318.916,399.465,320.441z"/>
	</g>
</g>
<g>
	<g>
		<path d="M395.551,199.866H272.709c0.285-19.396,16.142-35.088,35.604-35.088c38.052,0,69.009-30.957,69.009-69.009V79.236H343.93
			V95.77c0,19.64-15.978,35.617-35.617,35.617c-37.874,0-68.708,30.672-68.995,68.479H116.449C52.24,199.866,0,252.104,0,316.315
			c0,64.21,52.24,116.449,116.449,116.449c48.436,0,91.379-29.955,108.567-74.261h61.968
			c17.189,44.306,60.131,74.261,108.567,74.261C459.76,432.764,512,380.525,512,316.315C512,252.104,459.76,199.866,395.551,199.866
			z M395.551,399.372c-37.694,0-70.722-25.421-80.315-61.821l-3.279-12.44H200.044l-3.279,12.44
			c-9.593,36.399-42.621,61.821-80.315,61.821c-45.798,0-83.059-37.26-83.059-83.058c0-45.797,37.26-83.057,83.058-83.057h279.102
			c45.797,0,83.058,37.26,83.058,83.057S441.348,399.372,395.551,399.372z"/>
	</g>
</g>
<g>
	<g>
		<rect x="224.835" y="258.438" width="62.33" height="33.391"/>
	</g>
</g>
<g>
</g>
<g>
</g>
<g>
</g>
<g>
</g>
<g>
</g>
<g>
</g>
<g>
</g>
<g>
</g>
<g>
</g>
<g>
</g>
<g>
</g>
<g>
</g>
<g>
</g>
<g>
</g>
<g>
</g>
</svg>
