<?xml version="1.0" encoding="iso-8859-1"?>
<!-- Generator: Adobe Illustrator 18.0.0, SVG Export Plug-In . SVG Version: 6.00 Build 0)  -->
<!DOCTYPE svg PUBLIC "-//W3C//DTD SVG 1.1//EN" "http://www.w3.org/Graphics/SVG/1.1/DTD/svg11.dtd">
<svg version="1.1" id="Capa_1" xmlns="http://www.w3.org/2000/svg" xmlns:xlink="http://www.w3.org/1999/xlink" x="0px" y="0px"
	 viewBox="0 0 448.097 448.097" style="enable-background:new 0 0 448.097 448.097;" xml:space="preserve">
<g>
	<path d="M231.548,253.438v-33.719c5.778,2.8,9.782,8.707,9.782,15.547c0,4.143,3.357,7.5,7.5,7.5s7.5-3.357,7.5-7.5
		c0-15.218-10.588-28.003-24.782-31.395V199c0-4.143-3.357-7.5-7.5-7.5s-7.5,3.357-7.5,7.5v4.871
		c-14.195,3.392-24.783,16.176-24.783,31.395s10.589,28.003,24.783,31.395v33.718c-5.779-2.799-9.783-8.707-9.783-15.547
		c0-4.143-3.357-7.5-7.5-7.5s-7.5,3.357-7.5,7.5c0,15.219,10.589,28.003,24.783,31.395v4.871c0,4.143,3.357,7.5,7.5,7.5
		s7.5-3.357,7.5-7.5v-4.871c14.194-3.392,24.782-16.176,24.782-31.395S245.743,256.829,231.548,253.438z M206.765,235.266
		c0-6.84,4.004-12.748,9.783-15.547v31.094C210.77,248.013,206.765,242.106,206.765,235.266z M231.548,300.378v-31.093
		c5.778,2.8,9.782,8.706,9.782,15.546C241.331,291.671,237.326,297.578,231.548,300.378z"/>
	<path d="M327.048,73.302V15c0-8.284-6.716-15-15-15h-176c-8.284,0-15,6.716-15,15v58.302c-22.875,5.225-40,25.721-40,50.157v273.18
		c0,28.374,23.084,51.458,51.458,51.458h183.083c28.375,0,51.459-23.084,51.459-51.458v-273.18
		C367.048,99.023,349.923,78.526,327.048,73.302z M111.048,177.023h226v166.05h-226V177.023z M297.048,72h-7.495V30h7.495V72z
		 M178.542,72V30h17.004v42H178.542z M215.546,30h17.004v42h-17.004V30z M252.55,30h17.003v42H252.55V30z M158.542,30v42h-7.494V30
		H158.542z M132.506,102h183.083c11.832,0,21.459,9.626,21.459,21.459v33.564h-226v-33.564C111.048,111.626,120.674,102,132.506,102
		z M315.589,418.097H132.506c-11.832,0-21.458-9.626-21.458-21.458v-33.565h226v33.565
		C337.048,408.471,327.421,418.097,315.589,418.097z"/>
</g>
<g>
</g>
<g>
</g>
<g>
</g>
<g>
</g>
<g>
</g>
<g>
</g>
<g>
</g>
<g>
</g>
<g>
</g>
<g>
</g>
<g>
</g>
<g>
</g>
<g>
</g>
<g>
</g>
<g>
</g>
</svg>
