<?xml version="1.0" encoding="iso-8859-1"?>
<!-- Generator: Adobe Illustrator 19.0.0, SVG Export Plug-In . SVG Version: 6.00 Build 0)  -->
<svg version="1.1" id="Layer_1" xmlns="http://www.w3.org/2000/svg" xmlns:xlink="http://www.w3.org/1999/xlink" x="0px" y="0px"
	 viewBox="0 0 502.047 502.047" style="enable-background:new 0 0 502.047 502.047;" xml:space="preserve">
<g>
	<g>
		<g>
			<path d="M48.374,244.783c-5.522,0-10,4.477-10,10v72.653c0,5.523,4.478,10,10,10c5.522,0,10-4.477,10-10v-72.653
				C58.374,249.259,53.897,244.783,48.374,244.783z"/>
			<path d="M48.374,192.887c-5.522,0-10,4.477-10,10v18.164c0,5.523,4.478,10,10,10c5.522,0,10-4.477,10-10v-18.164
				C58.374,197.364,53.897,192.887,48.374,192.887z"/>
			<path d="M499.118,472.445l-95.536-95.536c1.469-1.821,2.876-3.705,4.223-5.647h64.409c5.522,0,10-4.477,10-10V98.778
				c0-2.21,0.24-4.64-0.337-6.805L462.7,19.956c-1.166-4.379-5.131-7.427-9.663-7.427H29.225c-4.532,0-8.497,3.048-9.663,7.427
				L0.385,91.973c-0.573,2.151-0.337,4.598-0.337,6.805v262.486c0,5.523,4.478,10,10,10h240.47
				c17.929,25.846,46.918,41.112,78.644,41.112c22.459,0,43.542-7.657,60.307-21.294l95.507,95.507
				c1.953,1.953,4.512,2.929,7.071,2.929s5.118-0.976,7.071-2.929C503.023,482.683,503.023,476.351,499.118,472.445z
				 M445.353,32.529l16.842,63.248c-0.651,19.402-16.638,34.985-36.195,34.985h-0.001c-19.97,0-36.216-16.247-36.216-36.216
				c0-0.441-0.029-0.882-0.088-1.32l-8.081-60.697H445.353z M361.437,32.528L361.437,32.528l2.936,22.051l5.405,40.594
				c-0.337,19.681-16.451,35.589-36.212,35.589c-19.97,0-36.217-16.247-36.217-36.216c0-0.222-0.008-0.443-0.022-0.665
				l-4.085-61.353H361.437z M207.39,57.697l1.676-25.169h64.132l2.132,32.017l2.019,30.317
				c-0.172,19.824-16.352,35.899-36.216,35.899s-36.043-16.076-36.216-35.899L207.39,57.697z M117.891,54.579l2.936-22.05h68.194
				l-4.084,61.353c-0.015,0.221-0.022,0.442-0.022,0.664c0,19.97-16.247,36.216-36.217,36.216c-19.76,0-35.875-15.908-36.212-35.589
				L117.891,54.579z M36.911,32.529h63.74L92.57,93.226c-0.059,0.438-0.088,0.878-0.088,1.32c0,19.97-16.247,36.216-36.217,36.216
				c-19.558,0-35.545-15.583-36.196-34.985L36.911,32.529z M176.045,351.264H96.701v-0.001V212.529h79.344V351.264z
				 M239.863,351.264h-43.819v-0.001V202.529c0-5.523-4.478-10-10-10H86.701c-5.522,0-10,4.477-10,10v148.735H20.048v-213.77
				c9.791,8.269,22.428,13.268,36.217,13.268c19.134,0,36.062-9.613,46.22-24.26c10.158,14.645,27.08,24.26,46.213,24.26
				c19.135,0,36.062-9.615,46.219-24.261c10.158,14.645,27.08,24.261,46.214,24.261c19.134,0,36.056-9.616,46.214-24.261
				c10.158,14.647,27.084,24.261,46.219,24.261c19.133,0,36.055-9.615,46.213-24.26c10.158,14.647,27.086,24.26,46.22,24.26
				c13.788,0,26.425-4.999,36.216-13.267v213.769h-43.756c4.266-10.992,6.479-22.738,6.479-34.664
				c0-52.811-42.965-95.776-95.776-95.776c-52.811,0-95.776,42.965-95.776,95.776C233.384,328.526,235.598,340.272,239.863,351.264z
				 M329.162,392.376c-26.615,0-50.803-13.58-64.706-36.327c-7.242-11.85-11.07-25.491-11.07-39.449
				c0-41.783,33.993-75.776,75.776-75.776c41.783,0,75.776,33.993,75.776,75.776c0,13.958-3.828,27.599-11.07,39.449
				C379.966,378.796,355.777,392.376,329.162,392.376z"/>
			<path d="M329.13,356.192c-6.138,0-12.017-1.363-17.472-4.051c-4.953-2.441-10.95-0.404-13.39,4.55
				c-2.441,4.954-0.404,10.949,4.55,13.39c8.229,4.055,17.081,6.111,26.312,6.111c5.522,0,10-4.477,10-10
				S334.653,356.192,329.13,356.192z"/>
			<path d="M329.13,257.008c-32.859,0-59.592,26.733-59.592,59.592c0,9.115,2.007,17.867,5.966,26.014
				c1.729,3.56,5.293,5.632,9.001,5.632c1.467,0,2.956-0.324,4.363-1.008c4.968-2.414,7.038-8.397,4.624-13.365
				c-2.624-5.4-3.954-11.212-3.954-17.273c0-21.831,17.761-39.592,39.592-39.592c5.522,0,10-4.477,10-10
				S334.653,257.008,329.13,257.008z"/>
		</g>
	</g>
</g>
<g>
</g>
<g>
</g>
<g>
</g>
<g>
</g>
<g>
</g>
<g>
</g>
<g>
</g>
<g>
</g>
<g>
</g>
<g>
</g>
<g>
</g>
<g>
</g>
<g>
</g>
<g>
</g>
<g>
</g>
</svg>
