<svg version="1.1" id="Uploaded to svgrepo.com" xmlns="http://www.w3.org/2000/svg" xmlns:xlink="http://www.w3.org/1999/xlink" x="0px" y="0px"
	 width="32px" height="32px" viewBox="0 0 32 32" style="enable-background:new 0 0 32 32;" xml:space="preserve">
<style type="text/css">
	.sharpcorners_een{fill:#111918;}
	.st0{fill:#111918;}
</style>
<path class="sharpcorners_een" d="M27.354,10.646l-0.707,0.707l2,2l-1.293,1.293l-3-3l-0.707,0.707l3,3l-1.293,1.293l-2-2
	l-0.707,0.707l2,2l-1.293,1.293l-3-3l-0.707,0.707l3,3l-1.293,1.293l-2-2l-0.707,0.707l2,2l-1.293,1.293l-3-3l-0.707,0.707l3,3
	l-1.293,1.293l-2-2l-0.707,0.707l2,2l-1.293,1.293l-3-3l-0.707,0.707l3,3l-1.293,1.293l-2-2l-0.707,0.707l2,2L11,31L1,21L21,1l10,10
	l-1.646,1.646L27.354,10.646z"/>
</svg>